<svg xmlns="http://www.w3.org/2000/svg" xmlns:xlink="http://www.w3.org/1999/xlink" fill="none" version="1.1" width="30" height="24" viewBox="0 0 30 24"><defs><clipPath id="master_svg0_1_144"><rect x="0" y="0" width="30" height="24" rx="0"/></clipPath></defs><g clip-path="url(#master_svg0_1_144)"><g transform="matrix(1,0,0,-1,0,46.12499237060547)"><g><path d="M16.49062571029663,34.499996185302734L13.416125710296631,34.499996185302734L16.49062571029663,34.499996185302734L13.416125710296631,34.499996185302734L13.416125710296631,37.26559618530273L16.49062571029663,37.26559618530273L16.49062571029663,34.499996185302734ZM16.49062571029663,44.062496185302734L13.416125710296631,44.062496185302734L16.49062571029663,44.062496185302734L13.416125710296631,44.062496185302734L13.416125710296631,41.20309618530273L16.49062571029663,41.20309618530273L16.49062571029663,44.062496185302734ZM20.12422571029663,37.26559618530273L17.04962571029663,37.26559618530273L20.12422571029663,37.26559618530273L17.04962571029663,37.26559618530273L17.04962571029663,34.499996185302734L20.12422571029663,34.499996185302734L20.12422571029663,37.26559618530273ZM12.85712571029663,40.64059618530273L9.78257571029663,40.64059618530273L12.85712571029663,40.64059618530273L9.78257571029663,40.64059618530273L9.78257571029663,37.82809618530273L12.85712571029663,37.82809618530273L12.85712571029663,40.64059618530273ZM16.49062571029663,40.64059618530273L13.416125710296631,40.64059618530273L16.49062571029663,40.64059618530273L13.416125710296631,40.64059618530273L13.416125710296631,37.82809618530273L16.49062571029663,37.82809618530273L16.49062571029663,40.64059618530273ZM29.39442571029663,35.95309618530273Q28.83542571029663,36.32809618530273,27.857125710296632,36.421896185302735Q26.92542571029663,36.51559618530273,25.99372571029663,36.374996185302734Q25.76082571029663,38.01559618530273,24.08382571029663,39.32809618530273L23.431625710296633,39.796896185302735L22.96582571029663,39.14059618530273Q22.31362571029663,38.109396185302735,22.22042571029663,36.749996185302734Q22.12732571029663,35.39059618530273,22.82602571029663,34.26559618530273Q22.17392571029663,33.84369618530273,20.54342571029663,33.749996185302734L0.2794739102966309,33.749996185302734Q-0.000029289703369128617,31.921876185302736,0.5123927102966308,29.859376185302736Q1.0248157102966309,27.796876185302736,2.329165710296631,26.156246185302734Q4.937855710296631,23.062496185302734,10.06208571029663,23.062496185302734Q15.60552571029663,23.062496185302734,19.518625710296632,25.546876185302736Q23.431625710296633,27.984376185302736,25.34162571029663,32.624996185302734Q26.180125710296632,32.531246185302734,27.437825710296632,32.906246185302734Q28.695625710296632,33.234396185302735,29.58072571029663,34.734396185302735Q29.72042571029663,34.96869618530273,29.95342571029663,35.437496185302734Q29.95342571029663,35.484396185302735,29.99992571029663,35.531296185302736L29.39442571029663,35.95309618530273ZM5.590035710296631,37.26559618530273L2.515495710296631,37.26559618530273L5.590035710296631,37.26559618530273L2.515495710296631,37.26559618530273L2.515495710296631,34.499996185302734L5.590035710296631,34.499996185302734L5.590035710296631,37.26559618530273ZM9.22357571029663,37.26559618530273L6.149035710296631,37.26559618530273L9.22357571029663,37.26559618530273L6.149035710296631,37.26559618530273L6.149035710296631,34.499996185302734L9.22357571029663,34.499996185302734L9.22357571029663,37.26559618530273ZM12.85712571029663,37.26559618530273L9.78257571029663,37.26559618530273L12.85712571029663,37.26559618530273L9.78257571029663,37.26559618530273L9.78257571029663,34.499996185302734L12.85712571029663,34.499996185302734L12.85712571029663,37.26559618530273ZM9.22357571029663,40.64059618530273L6.149035710296631,40.64059618530273L9.22357571029663,40.64059618530273L6.149035710296631,40.64059618530273L6.149035710296631,37.82809618530273L9.22357571029663,37.82809618530273L9.22357571029663,40.64059618530273Z" fill="#000000" fill-opacity="1" style="mix-blend-mode:passthrough"/></g></g></g></svg>