<svg xmlns="http://www.w3.org/2000/svg" xmlns:xlink="http://www.w3.org/1999/xlink" fill="none" version="1.1" width="21" height="32" viewBox="0 0 21 32"><defs><clipPath id="master_svg0_1_1301"><rect x="0" y="4" width="21" height="24" rx="0"/></clipPath></defs><g><rect x="0" y="0" width="21" height="32" rx="0" fill="#000000" fill-opacity="0" style="mix-blend-mode:passthrough"/><g clip-path="url(#master_svg0_1_1301)"><g transform="matrix(1,0,0,-1,0,57.03125)"><g><path d="M3.75,47.640625Q4.78125,47.734425,4.875,48.765625Q4.78125,49.796825,3.75,49.890625Q2.71875,49.796825,2.625,48.765625Q2.71875,47.734425,3.75,47.640625ZM7.5,48.765625Q7.5,47.593725,6.89062,46.703125Q6.28125,45.765625,5.25,45.343725L5.25,41.218725Q6.60938,42.015625,8.25,42.015625L12.75,42.015625Q14.0156,42.062525,14.8594,42.906225Q15.7031,43.750025,15.75,45.015625L15.75,45.343725Q14.7188,45.765625,14.1094,46.703125Q13.5,47.593725,13.5,48.765625Q13.5469,50.359425,14.5781,51.437525Q15.6562,52.468725,17.25,52.515625Q18.8438,52.468725,19.9219,51.437525Q20.9531,50.359425,21,48.765625Q21,47.593725,20.3906,46.703125Q19.7812,45.765625,18.75,45.343725L18.75,45.015625Q18.7031,42.484425,17.0156,40.750025Q15.2812,39.062525,12.75,39.015625L8.25,39.015625Q6.98438,38.968725,6.14062,38.125005Q5.29688,37.281245,5.25,36.015625L5.25,35.687505Q6.28125,35.265625,6.89062,34.328125Q7.5,33.437505,7.5,32.265625Q7.45312,30.671875,6.42188,29.593745Q5.34375,28.5625,3.75,28.515625Q2.15625,28.5625,1.07812,29.593745Q0.046875,30.671875,0,32.265625Q0,33.437505,0.609375,34.328125Q1.21875,35.265625,2.25,35.687505L2.25,36.015625L2.25,45.343725Q1.21875,45.765625,0.609375,46.703125Q0,47.593725,0,48.765625Q0.046875,50.359425,1.07812,51.437525Q2.15625,52.468725,3.75,52.515625Q5.34375,52.468725,6.42188,51.437525Q7.45312,50.359425,7.5,48.765625ZM18.375,48.765625Q18.2812,49.796825,17.25,49.890625Q16.2188,49.796825,16.125,48.765625Q16.2188,47.734425,17.25,47.640625Q18.2812,47.734425,18.375,48.765625ZM3.75,31.140625Q4.78125,31.234375,4.875,32.265625Q4.78125,33.296875,3.75,33.390625Q2.71875,33.296875,2.625,32.265625Q2.71875,31.234375,3.75,31.140625Z" fill="#000000" fill-opacity="1" style="mix-blend-mode:passthrough"/></g></g></g></g></svg>