<svg xmlns="http://www.w3.org/2000/svg" xmlns:xlink="http://www.w3.org/1999/xlink" fill="none" version="1.1" width="24" height="24" viewBox="0 0 24 24"><defs><clipPath id="master_svg0_1_149"><rect x="0" y="0" width="24" height="24" rx="0"/></clipPath></defs><g clip-path="url(#master_svg0_1_149)"><g transform="matrix(1,0,0,-1,0,49.03125)"><g><path d="M15.8438,38.859425L18.0938,40.875025L15.8438,38.859425L18.0938,40.875025Q19.0781,39.468725,19.4062,37.781225L16.3594,37.546825Q16.2188,38.296825,15.8438,38.859425ZM22.4062,37.968725Q21.9844,40.734425,20.3906,42.843725L20.3906,42.890625Q20.9062,43.312525,20.9062,43.921825Q20.9531,44.531225,20.4844,45.000025Q20.0156,45.421825,19.4062,45.421825Q18.7969,45.421825,18.375,44.906225L18.3281,44.906225Q16.2188,46.500025,13.4531,46.921825L13.4531,46.968725Q13.4531,47.625025,13.0781,48.046825Q12.6562,48.515625,12,48.515625Q11.3438,48.515625,10.9219,48.046825Q10.5469,47.625025,10.5469,46.968725L10.5469,46.921825Q7.78125,46.500025,5.67188,44.906225L5.625,44.906225Q5.20312,45.421825,4.59375,45.421825Q3.98438,45.468725,3.51562,45.000025Q3.09375,44.531225,3.09375,43.921825Q3.09375,43.312525,3.60938,42.890625L3.60938,42.843725Q2.01562,40.734425,1.59375,37.968725L1.54688,37.968725Q0.890625,37.968725,0.46875,37.593725Q0,37.171825,0,36.515625Q0,35.859425,0.46875,35.437525Q0.890625,35.062525,1.54688,35.062525L1.59375,35.062525Q2.01562,32.296875,3.60938,30.187505L3.60938,30.140625Q3.09375,29.718745,3.09375,29.109375Q3.04688,28.500005,3.51562,28.031245Q3.98438,27.609375,4.59375,27.609375Q5.20312,27.609375,5.625,28.078125L5.67188,28.125005Q7.78125,26.531245,10.5469,26.109375L10.5469,26.062505Q10.5469,25.40625,10.9219,24.984375Q11.3438,24.515625,12,24.515625Q12.6562,24.515625,13.0781,24.984375Q13.4531,25.40625,13.4531,26.062505L13.4531,26.109375Q16.2188,26.531245,18.3281,28.125005L18.375,28.125005Q18.7969,27.609375,19.4062,27.609375Q20.0156,27.562505,20.4844,28.031245Q20.9531,28.500005,20.9062,29.109375Q20.9062,29.718745,20.4375,30.140625L20.3906,30.187505Q21.9844,32.296875,22.4062,35.062525L22.4531,35.062525Q23.1094,35.062525,23.5312,35.437525Q24,35.859425,24,36.515625Q24,37.171825,23.5312,37.593725Q23.1094,37.968725,22.4531,37.968725L22.4062,37.968725ZM7.64062,42.609425Q9.04688,43.593725,10.7344,43.921825L10.9688,40.875025Q10.2656,40.734425,9.65625,40.359425L7.64062,42.609425ZM4.59375,37.781225Q4.92188,39.515625,5.90625,40.875025L8.15625,38.859425Q7.78125,38.250025,7.64062,37.546825L4.59375,37.781225ZM5.90625,32.156245Q4.92188,33.562505,4.59375,35.250025L7.64062,35.484425Q7.78125,34.781225,8.15625,34.171875L5.90625,32.156245ZM10.7812,29.109375Q9.04688,29.437505,7.64062,30.421875L9.65625,32.671875Q10.2656,32.296875,10.9688,32.156245L10.7812,29.109375ZM16.3594,30.421875Q15,29.437505,13.2656,29.109375L13.0312,32.156245Q13.7812,32.296875,14.3438,32.671875L16.3594,30.421875ZM19.4062,35.250025Q19.0781,33.515625,18.1406,32.156245L15.8438,34.171875Q16.2188,34.781225,16.4062,35.484425L19.4062,35.250025ZM16.3594,42.609425L14.3438,40.359425L16.3594,42.609425L14.3438,40.359425Q13.7812,40.734425,13.0312,40.875025L13.2656,43.921825Q15,43.593725,16.3594,42.609425ZM12,38.015625Q12.6562,38.015625,13.0781,37.593725Q13.5,37.171825,13.5,36.515625Q13.5,35.859425,13.0781,35.437525Q12.6562,35.015625,12,35.015625Q11.3438,35.015625,10.9219,35.437525Q10.5,35.859425,10.5,36.515625Q10.5,37.171825,10.9219,37.593725Q11.3438,38.015625,12,38.015625Z" fill="#000000" fill-opacity="1" style="mix-blend-mode:passthrough"/></g></g></g></svg>