<svg xmlns="http://www.w3.org/2000/svg" xmlns:xlink="http://www.w3.org/1999/xlink" fill="none" version="1.1" width="20.015625" height="24" viewBox="0 0 20.015625 24"><defs><clipPath id="master_svg0_1_154"><rect x="0" y="0" width="20.015625" height="24" rx="0"/></clipPath></defs><g clip-path="url(#master_svg0_1_154)"><g transform="matrix(1,0,0,-1,0,49.138916015625)"><g><path d="M9.937504387893677,42.810758007812495Q9.937504387893677,42.7638580078125,9.984374387893677,42.7638580078125Q10.031254387893677,42.7170580078125,10.078124387893677,42.7170580078125Q10.171914387893677,42.7170580078125,10.218714387893677,42.7638580078125Q10.171914387893677,42.8576580078125,10.078124387893677,42.9045580078125Q9.937504387893677,42.998258007812495,9.796874387893677,42.9045580078125Q9.750004387893677,42.9045580078125,9.750004387893677,42.8576580078125Q9.796874387893677,42.810758007812495,9.843754387893677,42.810758007812495Q9.890624387893677,42.810758007812495,9.937504387893677,42.810758007812495ZM8.906254387893677,42.7170580078125Q8.953124387893677,42.7170580078125,9.000004387893677,42.7638580078125L9.046874387893677,42.810758007812495Q9.093754387893677,42.810758007812495,9.093754387893677,42.810758007812495Q9.187504387893677,42.810758007812495,9.187504387893677,42.8576580078125Q9.234374387893677,42.9045580078125,9.187504387893677,42.9045580078125Q9.046874387893677,42.998258007812495,8.906254387893677,42.9045580078125Q8.765624387893677,42.8576580078125,8.765624387893677,42.7638580078125Q8.812504387893677,42.7170580078125,8.906254387893677,42.7170580078125ZM19.265614387893677,29.6388980078125Q19.031214387893677,29.9670280078125,18.93751438789368,30.5295280078125Q18.93751438789368,30.5763980078125,18.93751438789368,30.5763980078125Q18.843714387893677,31.1857780078125,18.421914387893676,31.6076480078125Q18.328114387893677,31.7013980078125,18.234414387893676,31.7482780078125Q18.140614387893677,31.7951480078125,18.046914387893676,31.8420280078125Q18.609414387893676,33.8107780078125,17.859414387893676,35.5451580078125Q17.484414387893676,36.6232580078125,16.87501438789368,37.5138580078125Q16.265614387893677,38.4045580078125,15.703114387893677,39.0607580078125L15.656214387893677,39.1076580078125Q15.046914387893677,39.8107580078125,14.578114387893677,40.6076580078125Q14.156214387893677,41.4045580078125,14.156214387893677,42.435758007812495Q14.156214387893677,42.5295580078125,14.156214387893677,42.6701580078125Q14.203114387893677,43.8420580078125,14.062514387893676,45.2013580078125Q13.875014387893676,46.560758007812495,13.125014387893676,47.5451580078125Q12.375014387893676,48.5295580078125,10.593714387893677,48.5763580078125Q8.578124387893677,48.5295580078125,7.781254387893677,47.5920580078125Q6.984374387893677,46.6545580078125,6.890624387893677,45.435758007812495Q6.796874387893677,44.1701580078125,6.890624387893677,43.1388580078125Q6.937504387893677,42.5763580078125,6.937504387893677,42.248258007812495Q6.890624387893677,40.7013580078125,5.859374387893677,39.2013580078125Q5.203124387893677,38.4045580078125,4.406254387893677,37.2326580078125Q3.6093743878936766,36.0138580078125,3.1406243878936766,34.6545580078125Q2.718754387893677,33.3888980078125,2.8593743878936766,32.1701480078125Q2.625004387893677,31.9357780078125,2.3906243878936766,31.6076480078125Q2.250004387893677,31.3732780078125,2.109374387893677,31.2326480078125Q1.8281243878936768,30.9982780078125,1.4062543878936768,30.9045280078125Q1.3593743878936768,30.8576480078125,1.3125043878936768,30.8576480078125Q0.7968753878936767,30.7170280078125,0.42187538789367673,30.1545280078125Q0.28125038789367673,29.8732780078125,0.28125038789367673,29.5920280078125Q0.28125038789367673,29.3107780078125,0.32812538789367673,29.0295280078125Q0.37500038789367673,28.9826480078125,0.37500038789367673,28.9357780078125Q0.46875038789367673,28.4201480078125,0.37500038789367673,28.0451480078125Q3.878936767620633e-7,27.0607780078125,0.28125038789367673,26.5451480078125Q0.5625003878936767,26.0763980078125,1.2187543878936768,25.9826480078125Q1.5937543878936768,25.9357780078125,2.062504387893677,25.8888980078125Q3.093754387893677,25.7951480078125,3.9843743878936766,25.4201520078125Q5.437504387893677,24.6701520078125,6.609374387893677,24.9045270078125Q7.453124387893677,25.0920270078125,7.828124387893677,25.8420280078125Q8.250004387893677,25.8888980078125,8.718754387893677,25.9826480078125Q9.281254387893677,26.1232780078125,10.078124387893677,26.1701480078125Q10.593714387893677,26.1701480078125,11.203114387893677,26.0763980078125Q11.859414387893677,25.9826480078125,12.703114387893677,25.9826480078125Q12.703114387893677,25.7951480078125,12.796914387893677,25.6545280078125Q13.453114387893677,24.4826524078125,14.671914387893677,24.5764024278125Q15.890614387893677,24.6701520078125,16.968714387893677,25.8888980078125Q17.671914387893676,26.6388980078125,18.656214387893677,27.0138980078125Q19.031214387893677,27.2013980078125,19.359414387893676,27.3888980078125Q19.921914387893676,27.7170280078125,19.968714387893677,28.2795280078125Q20.015614387893677,28.7951480078125,19.265614387893677,29.6388980078125ZM10.078124387893677,44.498258007812495Q10.453114387893677,45.248258007812495,11.109414387893677,45.248258007812495Q11.718714387893677,45.248258007812495,12.140614387893677,44.498258007812495Q12.515614387893677,43.373258007812495,11.906214387893677,42.623258007812495Q11.812514387893676,42.6701580078125,11.343714387893677,42.8576580078125L11.390614387893677,42.9045580078125Q11.484414387893677,42.9513580078125,11.531214387893677,43.0451580078125Q11.671914387893677,43.5138580078125,11.531214387893677,43.8888580078125Q11.390614387893677,44.310758007812495,11.109414387893677,44.310758007812495Q10.828114387893677,44.3576580078125,10.640614387893677,44.0295580078125Q10.453114387893677,43.7013580078125,10.546914387893677,43.2326580078125Q10.218714387893677,43.4201580078125,9.937504387893677,43.4670580078125Q9.843754387893677,43.9826580078125,10.078124387893677,44.498258007812495ZM8.156254387893677,45.0138580078125Q8.531254387893677,45.0138580078125,8.812504387893677,44.5920580078125Q9.093754387893677,44.123258007812495,9.046874387893677,43.4670580078125Q8.812504387893677,43.373258007812495,8.578124387893677,43.2326580078125Q8.625004387893677,43.560758007812495,8.484374387893677,43.8420580078125Q8.343754387893677,44.1701580078125,8.109374387893677,44.1701580078125Q7.828124387893677,44.0763580078125,7.781254387893677,43.6076580078125Q7.781254387893677,43.1388580078125,8.062504387893677,42.8576580078125Q8.062504387893677,42.810758007812495,8.062504387893677,42.810758007812495Q8.156254387893677,42.8576580078125,7.781254387893677,42.5763580078125Q7.218754387893677,43.185758007812495,7.359374387893677,44.0763580078125Q7.500004387893677,44.9201580078125,8.156254387893677,45.0138580078125ZM7.500004387893677,42.1545580078125Q7.640624387893677,42.2951580078125,7.781254387893677,42.3888580078125Q8.109374387893677,42.623258007812495,8.203124387893677,42.6701580078125Q8.203124387893677,42.7170580078125,8.250004387893677,42.7170580078125Q8.578124387893677,43.185758007812495,9.468754387893677,43.3263580078125Q9.984374387893677,43.373258007812495,10.687514387893676,42.9045580078125Q10.921914387893677,42.7638580078125,11.203114387893677,42.6701580078125Q11.437514387893676,42.623258007812495,11.765614387893677,42.4826580078125Q12.421914387893677,42.248258007812495,12.234414387893677,41.6388580078125Q12.046914387893677,41.0763580078125,11.203114387893677,40.7951580078125Q10.921914387893677,40.7013580078125,10.687514387893676,40.5138580078125Q10.218714387893677,40.0920580078125,9.421874387893677,40.0920580078125Q9.140624387893677,40.0920580078125,8.953124387893677,40.1857580078125Q8.671874387893677,40.3263580078125,8.437504387893677,40.5607580078125Q8.250004387893677,40.748258007812495,8.015624387893677,40.8888580078125Q7.406254387893677,41.2170580078125,7.312504387893677,41.5920580078125Q7.218754387893677,41.9670580078125,7.500004387893677,42.2013580078125L7.500004387893677,42.1545580078125ZM7.687504387893677,26.4982780078125Q7.500004387893677,25.3264020078125,6.421874387893677,25.1857770078125Q5.296874387893677,25.0920270078125,4.125004387893677,25.6545280078125Q3.093754387893677,26.1701480078125,2.062504387893677,26.1701480078125Q0.8906253878936767,26.2170280078125,0.5625003878936767,26.6857780078125Q0.37500038789367673,27.0138980078125,0.6562503878936767,27.9513980078125Q0.7968753878936767,28.4201480078125,0.6562503878936767,28.9357780078125Q0.6562503878936767,29.0295280078125,0.6562503878936767,29.0763980078125Q0.5156253878936767,29.6388980078125,0.7031253878936767,30.0138980078125Q0.9375003878936767,30.4357780078125,1.4062543878936768,30.5295280078125Q1.5000043878936768,30.5763980078125,1.5937543878936768,30.6232780078125Q1.9687543878936768,30.7170280078125,2.2968743878936766,30.9982780078125Q2.4843743878936766,31.2326480078125,2.6718743878936766,31.4670280078125Q2.812504387893677,31.6545280078125,3.000004387893677,31.8420280078125Q3.281254387893677,32.2638980078125,3.7968743878936766,32.1701480078125Q4.359374387893677,32.0763980078125,4.828124387893677,31.4201480078125L5.765624387893677,29.7326480078125Q6.046874387893677,29.2170280078125,6.562504387893677,28.6076480078125Q7.031254387893677,28.0451480078125,7.359374387893677,27.5295280078125Q7.687504387893677,26.9670280078125,7.687504387893677,26.4982780078125ZM7.593754387893677,27.7170280078125Q7.312504387893677,28.2326480078125,6.937504387893677,28.6545280078125Q7.500004387893677,28.6076480078125,7.734374387893677,29.0763980078125Q7.875004387893677,29.5451480078125,7.359374387893677,30.2482780078125Q6.843754387893677,30.9045280078125,6.234374387893677,31.3263980078125Q5.625004387893677,31.7482780078125,5.578124387893677,31.7482780078125Q4.640624387893677,32.3576480078125,4.406254387893677,33.1545280078125Q4.218754387893677,33.9513980078125,4.406254387893677,34.7951580078125Q4.593754387893677,35.6388580078125,4.968754387893677,36.3420580078125Q5.343754387893677,37.0920580078125,5.671874387893677,37.6076580078125Q5.906254387893677,37.7951580078125,5.296874387893677,36.6232580078125Q4.921874387893677,36.0138580078125,4.687504387893677,34.8888580078125Q4.453124387893677,33.8107780078125,5.156254387893677,32.7326480078125Q5.203124387893677,34.2326480078125,5.812504387893677,35.6388580078125Q5.953124387893677,35.9670580078125,6.140624387893677,36.3888580078125Q6.609374387893677,37.3732580078125,7.078124387893677,38.5920580078125Q7.546874387893677,39.8107580078125,7.640624387893677,40.935758007812495Q7.781254387893677,40.8420580078125,7.921874387893677,40.7013580078125Q8.109374387893677,40.6076580078125,8.296874387893677,40.4201580078125Q8.390624387893677,40.3263580078125,8.531254387893677,40.2326580078125Q9.468754387893677,39.5763580078125,10.500014387893676,40.1857580078125Q10.640614387893677,40.2795580078125,10.781214387893677,40.3732580078125Q11.062514387893676,40.5138580078125,11.250014387893676,40.6076580078125Q11.953114387893677,40.8420580078125,12.281214387893677,41.310758007812495Q12.609414387893677,40.1857580078125,13.125014387893676,38.9201580078125Q13.593714387893677,37.6076580078125,14.062514387893676,36.8107580078125Q14.296914387893677,36.4357580078125,14.625014387893676,35.6388580078125Q14.953114387893677,34.8420580078125,15.140614387893677,33.8107780078125Q15.375014387893676,33.8107780078125,15.656214387893677,33.7170280078125Q16.078114387893677,35.0295580078125,15.562514387893676,36.1545580078125Q15.046914387893677,37.2795580078125,14.578114387893677,37.7013580078125Q14.250014387893676,38.0295580078125,14.437514387893676,38.0295580078125Q14.906214387893677,37.6076580078125,15.375014387893676,36.8576580078125Q15.843714387893677,36.1545580078125,16.078114387893677,35.2638580078125Q16.31251438789368,34.4201480078125,16.12501438789368,33.5763980078125Q16.734414387893676,33.3420280078125,17.203114387893677,32.9201480078125Q17.718714387893677,32.5451480078125,17.578114387893677,31.9357780078125Q17.43751438789368,31.9357780078125,17.390614387893677,31.9357780078125L17.343714387893677,31.9357780078125Q17.578114387893677,32.5920280078125,16.31251438789368,33.1545280078125Q15.562514387893676,33.4826480078125,15.093714387893677,33.3888980078125Q14.578114387893677,33.2951480078125,14.484414387893677,32.5920280078125Q13.687514387893676,32.2170280078125,13.500014387893676,31.2795280078125Q13.312514387893676,30.5295280078125,13.265614387893677,29.4513980078125Q13.218714387893677,28.8888980078125,12.984414387893677,28.1388980078125Q12.984414387893677,28.0920280078125,12.984414387893677,28.0920280078125Q11.812514387893676,27.2482780078125,10.406214387893677,27.0607780078125Q8.953124387893677,26.8732780078125,7.593754387893677,27.7170280078125ZM19.68751438789368,28.2795280078125Q19.546914387893676,27.7170280078125,18.56251438789368,27.3420280078125Q17.578114387893677,26.9670280078125,16.734414387893676,26.0763980078125Q15.703114387893677,24.9982770078125,14.671914387893677,24.9045270078125Q13.640614387893677,24.8107770078125,13.078114387893677,25.7951480078125Q12.843714387893677,26.5920280078125,13.125014387893676,27.4826480078125Q13.218714387893677,27.8107780078125,13.312514387893676,28.0920280078125Q13.546914387893677,28.7951480078125,13.593714387893677,29.4045280078125Q13.640614387893677,30.4826480078125,13.781214387893677,31.2326480078125Q13.968714387893677,31.9357780078125,14.437514387893676,32.2170280078125Q14.484414387893677,32.2170280078125,14.484414387893677,32.2170280078125Q14.531214387893677,31.1857780078125,15.375014387893676,30.8576480078125Q15.843714387893677,30.7638980078125,16.359414387893676,31.0451480078125Q16.87501438789368,31.2795280078125,17.156214387893677,31.6076480078125Q17.203114387893677,31.6076480078125,17.25001438789368,31.6076480078125Q17.81251438789368,31.7013980078125,18.234414387893676,31.3732780078125Q18.56251438789368,31.0451480078125,18.656214387893677,30.4357780078125Q18.703114387893677,29.8732780078125,19.031214387893677,29.4045280078125Q19.734414387893676,28.6076480078125,19.68751438789368,28.2795280078125ZM7.687504387893677,41.5920580078125L7.734374387893677,41.5920580078125Q7.875004387893677,41.4513580078125,8.062504387893677,41.2638580078125Q8.531254387893677,40.8420580078125,9.375004387893677,40.7951580078125Q10.171914387893677,40.8420580078125,10.828114387893677,41.2638580078125Q11.250014387893676,41.498258007812495,11.531214387893677,41.7795580078125Q11.859414387893677,42.0138580078125,11.671914387893677,42.060758007812495Q11.578114387893677,42.060758007812495,11.531214387893677,41.9670580078125Q11.484414387893677,41.9201580078125,11.390614387893677,41.8263580078125Q11.343714387893677,41.7795580078125,11.250014387893676,41.7326580078125Q10.968714387893677,41.498258007812495,10.734414387893677,41.3576580078125Q10.171914387893677,40.9826580078125,9.375004387893677,40.8888580078125Q8.625004387893677,40.935758007812495,8.203124387893677,41.3576580078125Q7.968754387893677,41.5451580078125,7.828124387893677,41.685758007812495Q7.781254387893677,41.7326580078125,7.781254387893677,41.7795580078125Q7.734374387893677,41.873258007812495,7.640624387893677,41.9201580078125Q7.500004387893677,41.873258007812495,7.687504387893677,41.5920580078125Z" fill="#000000" fill-opacity="1" style="mix-blend-mode:passthrough"/></g></g></g></svg>