<svg xmlns="http://www.w3.org/2000/svg" xmlns:xlink="http://www.w3.org/1999/xlink" fill="none" version="1.1" width="30" height="24" viewBox="0 0 30 24"><defs><clipPath id="master_svg0_1_159"><rect x="0" y="0" width="30" height="24" rx="0"/></clipPath></defs><g clip-path="url(#master_svg0_1_159)"><g transform="matrix(1,0,0,-1,0,49.03125)"><g><path d="M12,45.515625L18,45.515625L12,45.515625L18,45.515625L18,42.515625L12,42.515625L12,45.515625ZM11.25,48.515625Q10.3125,48.468725,9.65625,47.859425Q9.04688,47.203125,9,46.265625L9,41.765625Q9.04688,40.828125,9.65625,40.171825Q10.3125,39.562525,11.25,39.515625L13.5,39.515625L13.5,38.015625L1.5,38.015625Q0.84375,38.015625,0.421875,37.593725Q0,37.171825,0,36.515625Q0,35.859425,0.421875,35.437525Q0.84375,35.015625,1.5,35.015625L6,35.015625L6,33.515625L3.75,33.515625Q2.8125,33.468745,2.15625,32.859375Q1.54688,32.203125,1.5,31.265625L1.5,26.765625Q1.54688,25.828125,2.15625,25.171875Q2.8125,24.5625,3.75,24.515625L11.25,24.515625Q12.1875,24.5625,12.8438,25.171875Q13.4531,25.828125,13.5,26.765625L13.5,31.265625Q13.4531,32.203125,12.8438,32.859375Q12.1875,33.468745,11.25,33.515625L9,33.515625L9,35.015625L21,35.015625L21,33.515625L18.75,33.515625Q17.8125,33.468745,17.1562,32.859375Q16.5469,32.203125,16.5,31.265625L16.5,26.765625Q16.5469,25.828125,17.1562,25.171875Q17.8125,24.5625,18.75,24.515625L26.25,24.515625Q27.1875,24.5625,27.8438,25.171875Q28.4531,25.828125,28.5,26.765625L28.5,31.265625Q28.4531,32.203125,27.8438,32.859375Q27.1875,33.468745,26.25,33.515625L24,33.515625L24,35.015625L28.5,35.015625Q29.1562,35.015625,29.5781,35.437525Q30,35.859425,30,36.515625Q30,37.171825,29.5781,37.593725Q29.1562,38.015625,28.5,38.015625L16.5,38.015625L16.5,39.515625L18.75,39.515625Q19.6875,39.562525,20.3438,40.171825Q20.9531,40.828125,21,41.765625L21,46.265625Q20.9531,47.203125,20.3438,47.859425Q19.6875,48.468725,18.75,48.515625L11.25,48.515625ZM4.5,27.515625L4.5,30.515625L4.5,27.515625L4.5,30.515625L10.5,30.515625L10.5,27.515625L4.5,27.515625ZM19.5,30.515625L25.5,30.515625L19.5,30.515625L25.5,30.515625L25.5,27.515625L19.5,27.515625L19.5,30.515625Z" fill="#000000" fill-opacity="1" style="mix-blend-mode:passthrough"/></g></g></g></svg>