<?xml version="1.0" encoding="UTF-8"?>
<svg version="1.1" xmlns="http://www.w3.org/2000/svg" width="96" height="96">
<path d="M0 0 C0.68128967 -0.00175232 1.36257935 -0.00350464 2.06451416 -0.00531006 C4.32688917 -0.00972789 6.58918663 -0.00679084 8.8515625 -0.00341797 C10.4171551 -0.00409103 11.9827476 -0.00506107 13.54833984 -0.00631714 C16.83366895 -0.00779402 20.11897092 -0.00563988 23.40429688 -0.00097656 C27.62476766 0.00472073 31.84517486 0.00144167 36.06564331 -0.00454903 C39.29972822 -0.00815491 42.53379795 -0.00701593 45.7678833 -0.00442123 C47.32448331 -0.00375204 48.88108468 -0.00458012 50.43768311 -0.00690079 C52.60953446 -0.00942777 54.78128146 -0.00558612 56.953125 0 C58.19143066 0.00079559 59.42973633 0.00159119 60.70556641 0.00241089 C63.4765625 0.12939453 63.4765625 0.12939453 64.4765625 1.12939453 C69.82906054 42.45375262 69.82906054 42.45375262 59.24154663 57.57772827 C52.50691675 66.0370459 44.6163128 71.56565415 33.79394531 73.12744141 C20.42515521 74.48135285 6.78644918 73.8533449 -6.5234375 72.12939453 C-8.39329571 70.25953632 -7.65123098 67.09791833 -7.65283203 64.60595703 C-7.65458435 63.92466736 -7.65633667 63.24337769 -7.65814209 62.54144287 C-7.66255992 60.27906786 -7.65962288 58.0167704 -7.65625 55.75439453 C-7.65692306 54.18880193 -7.6578931 52.62320943 -7.65914917 51.05761719 C-7.66062605 47.77228808 -7.65847191 44.48698611 -7.65380859 41.20166016 C-7.6481113 36.98118937 -7.65139036 32.76078217 -7.65738106 28.54031372 C-7.66098694 25.30622881 -7.65984796 22.07215909 -7.65725327 18.83807373 C-7.65658407 17.28147372 -7.65741216 15.72487235 -7.65973282 14.16827393 C-7.6622598 11.99642257 -7.65841815 9.82467557 -7.65283203 7.65283203 C-7.65203644 6.41452637 -7.65124084 5.1762207 -7.65042114 3.90039062 C-7.41283072 -1.28423102 -4.56852963 0.00293521 0 0 Z " fill="#FED600" transform="translate(19.5234375,11.87060546875)"/>
<path d="M0 0 C1.49249268 0.01571045 1.49249268 0.01571045 3.01513672 0.03173828 C4.6296875 0.04140625 4.6296875 0.04140625 6.27685547 0.05126953 C7.40478516 0.06802734 8.53271484 0.08478516 9.69482422 0.10205078 C11.39832031 0.11558594 11.39832031 0.11558594 13.13623047 0.12939453 C15.94763721 0.1530198 18.7586272 0.18596065 21.56982422 0.22705078 C16.61438284 6.20439987 11.25792869 11.68893013 5.75732422 17.16455078 C4.8865625 18.03917969 4.01580078 18.91380859 3.11865234 19.81494141 C1.87825195 21.0534082 1.87825195 21.0534082 0.61279297 22.31689453 C-0.13977783 23.0683374 -0.89234863 23.81978027 -1.66772461 24.59399414 C-3.43017578 26.22705078 -3.43017578 26.22705078 -4.43017578 26.22705078 C-4.48803225 22.26877843 -4.52372295 18.31061409 -4.55517578 14.35205078 C-4.57193359 13.22412109 -4.58869141 12.09619141 -4.60595703 10.93408203 C-4.61240234 9.85771484 -4.61884766 8.78134766 -4.62548828 7.67236328 C-4.63596191 6.67736816 -4.64643555 5.68237305 -4.65722656 4.65722656 C-4.33837624 1.24449961 -3.41272695 0.31885032 0 0 Z " fill="#46443F" transform="translate(62.43017578125,57.77294921875)"/>
<path d="M0 0 C15.18 0 30.36 0 46 0 C46 1.32 46 2.64 46 4 C30.82 4 15.64 4 0 4 C0 2.68 0 1.36 0 0 Z " fill="#E8BA12" transform="translate(25,46)"/>
<path d="M0 0 C15.18 0 30.36 0 46 0 C46 1.32 46 2.64 46 4 C30.82 4 15.64 4 0 4 C0 2.68 0 1.36 0 0 Z " fill="#E8BA12" transform="translate(25,34)"/>
<path d="M0 0 C7.26 0 14.52 0 22 0 C22 1.32 22 2.64 22 4 C14.74 4 7.48 4 0 4 C0 2.68 0 1.36 0 0 Z " fill="#E8BA12" transform="translate(25,58)"/>
</svg>
