<?xml version="1.0" encoding="UTF-8"?>
<svg version="1.1" xmlns="http://www.w3.org/2000/svg" width="48" height="48">
<path d="M0 0 C0.99 0.33 1.98 0.66 3 1 C3.68419923 2.79099209 4.29948245 4.60868596 4.875 6.4375 C6.0088616 9.50081064 6.0088616 9.50081064 8 12 C12.30920755 13.57079255 16.43395686 13.91309142 21 14 C21 18 21 18 19.5390625 19.921875 C18.90742187 20.52515625 18.27578125 21.1284375 17.625 21.75 C16.99851563 22.36359375 16.37203125 22.9771875 15.7265625 23.609375 C14 25 14 25 12 25 C12.99 29.95 13.98 34.9 15 40 C8.40888889 38.90148148 8.40888889 38.90148148 5.5 36.8125 C2.17659108 34.64026973 2.17659108 34.64026973 -1.125 35.5625 C-4.0047154 36.94813056 -4.0047154 36.94813056 -6.625 38.625 C-9 40 -9 40 -13 40 C-12.01 35.05 -11.02 30.1 -10 25 C-11.32 24.34 -12.64 23.68 -14 23 C-16.13388078 21.11083032 -18.02671753 19.06297713 -20 17 C-19.505 15.515 -19.505 15.515 -19 14 C-18.13117187 13.99484375 -17.26234375 13.9896875 -16.3671875 13.984375 C-12.58485759 13.73052736 -9.55671761 13.34167995 -6 12 C-3.10074829 8.30255288 -1.48550577 4.43616793 0 0 Z " fill="#FEC80F" transform="translate(23,4)"/>
</svg>
